# xmcd
#
# Track frame offsets: 
#        150
#        14811
#        29411
#        41743
#        47767
#        59101
#        70588
#        84094
#        92363
#        106340
#        115798
#        126571
#        138619
#        149418
#        163796
#        176288
#        188435
#        200448
#        212311
#        226085
#
# Disc length: 3161 seconds
#
# Revision: 8
# Processed by: cddbd v1.5.2PL0 Copyright (c) Steve Scherf et al.
# Submitted via: ExactAudioCopy v1.1
#
DISCID=140c5714
DTITLE=Various Artist - CD03_1936-40
DYEAR=2006
DGENRE=Country
TTITLE0=Lonnie Glosson (1936) - Lonnie's Fox Chase
TTITLE1=Alfred Karnes (1936) - Where We'll Never Grow Old
TTITLE2=Walker's Corbin Ramblers (1936) - Ruflles And Bustle
TTITLE3=Gene Autry (1936) - Ride Ranger Ride
TTITLE4=Gene Autry (1937) - Rhythm Of The Range
TTITLE5=The Monroe Brothers (1937) - Sinner You Better Get Ready
TTITLE6=B.F. Shelton (1935)  - Oh Molly Dear
TTITLE7=W.M. Stepp and W. Williams (1935) - Mud Fence
TTITLE8=Jimmie Davis (1936) - Honky Tonk Blues
TTITLE9=Riverside Ramblers (1937) - Drifting Along
TTITLE10=W.M. Stepp (1937) - Silver Strand
TTITLE11=The Shelton Brothers (1938) - Aura Lee
TTITLE12=Light Crust Doughboys (1938) - Pussy Pussy Pussy
TTITLE13=Joe's Acadians (1938) - Ammend La Nouville A Ma Mere
TTITLE14=Sons Of The Pioneers (1937) - Song Of The Bandit
TTITLE15=Cliff Burner (1938) - When You're Smiling
TTITLE16=Shelley Lee Alley (1937) - Women Women Women
TTITLE17=Jimmie Revard (1937) - Fox And Hounds
TTITLE18=Rex Griffin (1937) - The Last Letter
TTITLE19=Bar X Cowboys (1940) - When Mama Goes Out
EXTD=
EXTT0=
EXTT1=
EXTT2=
EXTT3=
EXTT4=
EXTT5=
EXTT6=
EXTT7=
EXTT8=
EXTT9=
EXTT10=
EXTT11=
EXTT12=
EXTT13=
EXTT14=
EXTT15=
EXTT16=
EXTT17=
EXTT18=
EXTT19=
PLAYORDER=
